<?xml version="1.0" encoding="UTF-8"?>
<!-- Generator: Adobe Illustrator 26.0.3, SVG Export Plug-In . SVG Version: 6.00 Build 0)  -->
<!-- Edited by YBU -->
<svg version="1.0" xmlns="http://www.w3.org/2000/svg" xmlns:xlink="http://www.w3.org/1999/xlink" x="0px" y="0px"
	viewBox="0 0 90.71 90.71" xml:space="preserve">
	<g>
		<path fill="#004170"
			d="M29.12,52.34c0.35,7.93,4.22,11.54,11.18,11.54c5.02,0,9.07-3.08,9.87-5.9h11.01C57.65,68.72,50.17,73.3,39.86,73.3c-14.35,0-23.25-9.87-23.25-23.96c0-13.65,9.42-24.04,23.25-24.04c15.5,0,22.98,13.03,22.1,27.03H29.12zM49.46,44.42c-1.14-6.34-3.87-9.69-9.95-9.69c-7.93,0-10.22,6.16-10.39,9.69H49.46z" />
		<polygon fill="#004170"
			points="18.28,88.73 2.73,88.73 2.73,8.67 18.28,8.67 18.28,9.89 3.95,9.89 3.95,87.5 18.28,87.5" />
	</g>
</svg>